<svg width="49" height="49" viewBox="0 0 49 49" fill="none" xmlns="http://www.w3.org/2000/svg">
<g clip-path="url(#clip0_1597_25637)">
<g clip-path="url(#clip1_1597_25637)">
<path d="M33.4194 29.4562V32.4562C33.4205 32.7347 33.3634 33.0104 33.2519 33.2656C33.1403 33.5208 32.9767 33.7498 32.7714 33.9381C32.5662 34.1264 32.3239 34.2697 32.0601 34.3589C31.7963 34.4482 31.5167 34.4813 31.2394 34.4562C28.1622 34.1219 25.2063 33.0704 22.6094 31.3862C20.1932 29.8509 18.1447 27.8024 16.6094 25.3862C14.9193 22.7774 13.8676 19.8072 13.5394 16.7162C13.5144 16.4397 13.5472 16.161 13.6359 15.8979C13.7245 15.6347 13.8669 15.3929 14.0541 15.1879C14.2413 14.9828 14.4692 14.8189 14.7232 14.7068C14.9771 14.5946 15.2517 14.5365 15.5294 14.5362H18.5294C19.0147 14.5315 19.4852 14.7033 19.8531 15.0198C20.2211 15.3362 20.4614 15.7757 20.5294 16.2562C20.6564 17.2162 20.8904 18.1592 21.2294 19.0662C21.3638 19.4242 21.3928 19.8131 21.3131 20.1871C21.2333 20.561 21.0481 20.9043 20.7794 21.1762L19.5094 22.4462C20.9328 24.9498 23.0058 27.0228 25.5094 28.4462L26.7794 27.1762C27.0513 26.9074 27.3945 26.7221 27.7685 26.6423C28.1425 26.5626 28.5314 26.5917 28.8894 26.7262C29.7964 27.0652 30.7394 27.3002 31.6994 27.4262C32.1851 27.4948 32.6288 27.7394 32.9459 28.1137C33.263 28.488 33.4315 28.9658 33.4194 29.4562Z" fill="black"/>
<path d="M27.4688 14.5361C29.507 14.7509 31.4109 15.6549 32.8656 17.0987C34.3203 18.5425 35.2386 20.4395 35.4688 22.4761M27.4688 18.5361C28.4523 18.7301 29.3548 19.2152 30.0591 19.9284C30.7635 20.6417 31.2372 21.5503 31.4188 22.5361" stroke="black" stroke-width="2" stroke-linecap="round" stroke-linejoin="round"/>
</g>
</g>
<defs>
<clipPath id="clip0_1597_25637">
<rect width="49" height="49" fill="white"/>
</clipPath>
<clipPath id="clip1_1597_25637">
<rect width="49" height="49" fill="white"/>
</clipPath>
</defs>
</svg>
