<svg width="41" height="40" viewBox="0 0 41 40" fill="none" xmlns="http://www.w3.org/2000/svg">
<g clip-path="url(#clip0_1597_25583)">
<path fill-rule="evenodd" clip-rule="evenodd" d="M20.4055 30.5003C20.4055 30.5003 28.8948 24.133 28.8948 17.7656C28.9056 16.6438 28.6941 15.531 28.2723 14.4915C27.8505 13.4519 27.2269 12.5063 26.4375 11.7092C25.6481 10.9121 24.7085 10.2793 23.6731 9.84751C22.6377 9.41569 21.5269 9.19336 20.4051 9.19336C19.2833 9.19336 18.1725 9.41569 17.1371 9.84751C16.1017 10.2793 15.1621 10.9121 14.3727 11.7092C13.5833 12.5063 12.9597 13.4519 12.5379 14.4915C12.1161 15.531 11.9046 16.6438 11.9154 17.7656C11.9154 24.133 20.4055 30.5003 20.4055 30.5003ZM23.5892 17.7648C23.5892 18.6092 23.2537 19.419 22.6567 20.016C22.0596 20.6131 21.2499 20.9485 20.4055 20.9485C19.5611 20.9485 18.7514 20.6131 18.1543 20.016C17.5572 19.419 17.2218 18.6092 17.2218 17.7648C17.2218 16.9205 17.5572 16.1107 18.1543 15.5136C18.7514 14.9166 19.5611 14.5812 20.4055 14.5812C21.2499 14.5812 22.0596 14.9166 22.6567 15.5136C23.2537 16.1107 23.5892 16.9205 23.5892 17.7648Z" fill="black"/>
</g>
<defs>
<clipPath id="clip0_1597_25583">
<rect width="40" height="39" fill="white" transform="translate(0.40625 0.388672)"/>
</clipPath>
</defs>
</svg>
