<svg width="31" height="31" viewBox="0 0 31 31" fill="none" xmlns="http://www.w3.org/2000/svg">
<g clip-path="url(#clip0_1597_25566)">
<g clip-path="url(#clip1_1597_25566)">
<g clip-path="url(#clip2_1597_25566)">
<path fill-rule="evenodd" clip-rule="evenodd" d="M27.3988 3.0957H3.40332C2.14348 3.0957 1.05911 3.8831 0.615919 4.98997C0.767775 5.01921 0.915132 5.07996 1.04899 5.17332L15.4022 15.2206L29.7554 5.17332C29.8848 5.08237 30.032 5.01988 30.1873 4.98997C29.9648 4.43236 29.5806 3.95404 29.0841 3.61649C28.5876 3.27894 28.0014 3.09758 27.4011 3.0957H27.3988ZM30.3988 7.46803L16.0456 17.5153C15.8566 17.6474 15.6316 17.7183 15.4011 17.7183C15.1705 17.7183 14.9455 17.6474 14.7565 17.5153L0.40332 7.46803V24.0935C0.40332 25.7425 1.75315 27.0923 3.4022 27.0923H27.3999C29.049 27.0923 30.3988 25.7425 30.3988 24.0935V7.46803Z" fill="black"/>
</g>
</g>
</g>
<defs>
<clipPath id="clip0_1597_25566">
<rect width="30" height="30" fill="white" transform="translate(0.40625 0.0898438)"/>
</clipPath>
<clipPath id="clip1_1597_25566">
<rect width="30" height="30" fill="white" transform="translate(0.40625 0.0898438)"/>
</clipPath>
<clipPath id="clip2_1597_25566">
<rect width="30" height="23.9932" fill="white" transform="translate(0.40625 3.09277)"/>
</clipPath>
</defs>
</svg>
